<mxfile host="app.diagrams.net" modified="2022-03-19T07:59:14.396Z" agent="5.0 (Windows NT 10.0; Win64; x64) AppleWebKit/537.36 (KHTML, like Gecko) Chrome/99.0.4844.51 Safari/537.36" etag="gSXzm8t3d4OoZ1fPmj0W" version="17.1.1" type="github">
  <diagram id="prtHgNgQTEPvFCAcTncT" name="Page-1">
    <mxGraphModel dx="1038" dy="568" grid="1" gridSize="10" guides="1" tooltips="1" connect="1" arrows="1" fold="1" page="1" pageScale="1" pageWidth="827" pageHeight="1169" math="0" shadow="0">
      <root>
        <mxCell id="0" />
        <mxCell id="1" parent="0" />
        <mxCell id="mCNUu-bl9-15rhKYMow--46" value="" style="rounded=1;whiteSpace=wrap;html=1;fillColor=#fff2cc;strokeColor=#d6b656;gradientColor=#ffd966;" parent="1" vertex="1">
          <mxGeometry x="29" y="410" width="770" height="160" as="geometry" />
        </mxCell>
        <mxCell id="mCNUu-bl9-15rhKYMow--13" value="" style="rounded=1;whiteSpace=wrap;html=1;fillColor=#fad9d5;strokeColor=#ae4132;" parent="1" vertex="1">
          <mxGeometry x="29" y="180" width="770" height="230" as="geometry" />
        </mxCell>
        <mxCell id="mCNUu-bl9-15rhKYMow--1" value="" style="rounded=1;whiteSpace=wrap;html=1;fillColor=#d5e8d4;strokeColor=#82b366;gradientColor=#97d077;" parent="1" vertex="1">
          <mxGeometry x="29" y="20" width="770" height="160" as="geometry" />
        </mxCell>
        <mxCell id="iCyHkljeh6y5lovYUsBy-9" value="网页管理端" style="swimlane;fillColor=#d5e8d4;strokeColor=#82b366;fontSize=16;strokeWidth=3;" parent="1" vertex="1">
          <mxGeometry x="56" y="40" width="730" height="120" as="geometry">
            <mxRectangle x="10" y="120" width="130" height="23" as="alternateBounds" />
          </mxGeometry>
        </mxCell>
        <mxCell id="iCyHkljeh6y5lovYUsBy-11" value="数据增删改查" style="rounded=1;whiteSpace=wrap;html=1;fontSize=14;fillColor=#d5e8d4;strokeColor=#82b366;shadow=1;fontStyle=1;" parent="iCyHkljeh6y5lovYUsBy-9" vertex="1">
          <mxGeometry x="10" y="40" width="120" height="60" as="geometry" />
        </mxCell>
        <mxCell id="iCyHkljeh6y5lovYUsBy-12" value="加工时间预测" style="rounded=1;whiteSpace=wrap;html=1;fontSize=14;fillColor=#d5e8d4;strokeColor=#82b366;shadow=1;fontStyle=1;" parent="iCyHkljeh6y5lovYUsBy-9" vertex="1">
          <mxGeometry x="440" y="40" width="120" height="60" as="geometry" />
        </mxCell>
        <mxCell id="iCyHkljeh6y5lovYUsBy-13" value="用户权限配置" style="rounded=1;whiteSpace=wrap;html=1;strokeColor=#82b366;fillColor=#d5e8d4;fontSize=14;shadow=1;fontStyle=1;" parent="iCyHkljeh6y5lovYUsBy-9" vertex="1">
          <mxGeometry x="150" y="40" width="120" height="60" as="geometry" />
        </mxCell>
        <mxCell id="iCyHkljeh6y5lovYUsBy-14" value="交互式排程" style="rounded=1;whiteSpace=wrap;html=1;strokeColor=#82b366;fillColor=#d5e8d4;fontSize=14;shadow=1;fontStyle=1;" parent="iCyHkljeh6y5lovYUsBy-9" vertex="1">
          <mxGeometry x="294" y="40" width="120" height="60" as="geometry" />
        </mxCell>
        <mxCell id="iCyHkljeh6y5lovYUsBy-18" value="数据备份" style="rounded=1;whiteSpace=wrap;html=1;strokeColor=#82b366;fillColor=#d5e8d4;fontSize=14;shadow=1;fontStyle=1;" parent="iCyHkljeh6y5lovYUsBy-9" vertex="1">
          <mxGeometry x="580" y="40" width="120" height="60" as="geometry" />
        </mxCell>
        <mxCell id="iCyHkljeh6y5lovYUsBy-10" value="算法后端" style="swimlane;fillColor=#f8cecc;strokeColor=#b85450;fontStyle=1;fontSize=16;strokeWidth=3;" parent="1" vertex="1">
          <mxGeometry x="52" y="200" width="734" height="190" as="geometry" />
        </mxCell>
        <mxCell id="iCyHkljeh6y5lovYUsBy-16" value="单元测试" style="rounded=1;whiteSpace=wrap;html=1;fontSize=14;fillColor=#f8cecc;strokeColor=#b85450;shadow=1;fontStyle=1;" parent="iCyHkljeh6y5lovYUsBy-10" vertex="1">
          <mxGeometry x="24" y="40" width="120" height="60" as="geometry" />
        </mxCell>
        <mxCell id="CO-tr22tlqF5QXnQw542-23" value="定制化约束&lt;br&gt;通用约束" style="rounded=1;whiteSpace=wrap;html=1;fontSize=14;fillColor=#f8cecc;strokeColor=#b85450;shadow=1;fontStyle=1;" parent="iCyHkljeh6y5lovYUsBy-10" vertex="1">
          <mxGeometry x="166.5" y="40" width="120" height="60" as="geometry" />
        </mxCell>
        <mxCell id="CO-tr22tlqF5QXnQw542-22" value="定制化目标值&lt;br&gt;通用目标值" style="rounded=1;whiteSpace=wrap;html=1;fontSize=14;fillColor=#f8cecc;strokeColor=#b85450;shadow=1;fontStyle=1;" parent="iCyHkljeh6y5lovYUsBy-10" vertex="1">
          <mxGeometry x="310.5" y="40" width="120" height="60" as="geometry" />
        </mxCell>
        <mxCell id="CO-tr22tlqF5QXnQw542-27" value="排程初始解" style="rounded=1;whiteSpace=wrap;html=1;fontSize=14;fillColor=#f8cecc;strokeColor=#b85450;shadow=1;fontStyle=1;" parent="iCyHkljeh6y5lovYUsBy-10" vertex="1">
          <mxGeometry x="456.5" y="40" width="120" height="60" as="geometry" />
        </mxCell>
        <mxCell id="CO-tr22tlqF5QXnQw542-28" value="深度优化解&lt;br&gt;（可选）" style="rounded=1;whiteSpace=wrap;html=1;fontSize=14;fillColor=#f8cecc;strokeColor=#b85450;shadow=1;fontStyle=1;" parent="iCyHkljeh6y5lovYUsBy-10" vertex="1">
          <mxGeometry x="596.5" y="40" width="120" height="60" as="geometry" />
        </mxCell>
        <mxCell id="CO-tr22tlqF5QXnQw542-26" value="加工时间预测模块" style="rounded=1;whiteSpace=wrap;html=1;fontSize=14;fillColor=#f8cecc;strokeColor=#b85450;shadow=1;fontStyle=1;" parent="iCyHkljeh6y5lovYUsBy-10" vertex="1">
          <mxGeometry x="24" y="120" width="120" height="60" as="geometry" />
        </mxCell>
        <mxCell id="CO-tr22tlqF5QXnQw542-29" value="异常，重点数据&lt;br&gt;分析与反馈" style="rounded=1;whiteSpace=wrap;html=1;fontSize=14;fillColor=#f8cecc;strokeColor=#b85450;shadow=1;fontStyle=1;" parent="iCyHkljeh6y5lovYUsBy-10" vertex="1">
          <mxGeometry x="166.5" y="120" width="120" height="60" as="geometry" />
        </mxCell>
        <mxCell id="CO-tr22tlqF5QXnQw542-24" value="基础排程计算" style="rounded=1;whiteSpace=wrap;html=1;fontSize=14;fillColor=#f8cecc;strokeColor=#b85450;shadow=1;fontStyle=1;" parent="iCyHkljeh6y5lovYUsBy-10" vertex="1">
          <mxGeometry x="310" y="120" width="120" height="60" as="geometry" />
        </mxCell>
        <mxCell id="mCNUu-bl9-15rhKYMow--11" value="外包模块" style="rounded=1;whiteSpace=wrap;html=1;fontSize=14;fillColor=#f8cecc;strokeColor=#b85450;shadow=1;fontStyle=1;" parent="iCyHkljeh6y5lovYUsBy-10" vertex="1">
          <mxGeometry x="456.5" y="120" width="120" height="60" as="geometry" />
        </mxCell>
        <mxCell id="mCNUu-bl9-15rhKYMow--12" value="数据防错" style="rounded=1;whiteSpace=wrap;html=1;fontSize=14;fillColor=#f8cecc;strokeColor=#b85450;shadow=1;fontStyle=1;" parent="iCyHkljeh6y5lovYUsBy-10" vertex="1">
          <mxGeometry x="596.5" y="120" width="120" height="60" as="geometry" />
        </mxCell>
        <mxCell id="mCNUu-bl9-15rhKYMow--15" value="对接数据库及系统" style="swimlane;fillColor=#fff2cc;strokeColor=#d6b656;fontStyle=1;fontSize=16;strokeWidth=3;" parent="1" vertex="1">
          <mxGeometry x="54" y="420" width="734" height="130" as="geometry" />
        </mxCell>
        <mxCell id="CO-tr22tlqF5QXnQw542-25" value="排程表格&lt;br&gt;配置文件" style="rounded=1;whiteSpace=wrap;html=1;fontSize=14;fillColor=#fff2cc;strokeColor=#d6b656;shadow=1;fontStyle=1;" parent="mCNUu-bl9-15rhKYMow--15" vertex="1">
          <mxGeometry x="226" y="40" width="114.5" height="75" as="geometry" />
        </mxCell>
        <mxCell id="CO-tr22tlqF5QXnQw542-20" value="MES系统" style="rounded=1;whiteSpace=wrap;html=1;fontSize=14;fillColor=#fff2cc;strokeColor=#d6b656;shadow=1;fontStyle=1;" parent="mCNUu-bl9-15rhKYMow--15" vertex="1">
          <mxGeometry x="386" y="40" width="121" height="75" as="geometry" />
        </mxCell>
        <mxCell id="mCNUu-bl9-15rhKYMow--14" value="单点登录系统" style="rounded=1;whiteSpace=wrap;html=1;fontSize=14;fillColor=#fff2cc;strokeColor=#d6b656;shadow=1;fontStyle=1;" parent="mCNUu-bl9-15rhKYMow--15" vertex="1">
          <mxGeometry x="546" y="40" width="122" height="75" as="geometry" />
        </mxCell>
        <mxCell id="mCNUu-bl9-15rhKYMow--47" value="ORM数据库" style="rounded=1;whiteSpace=wrap;html=1;fontSize=14;fillColor=#fff2cc;strokeColor=#d6b656;shadow=1;fontStyle=1;" parent="mCNUu-bl9-15rhKYMow--15" vertex="1">
          <mxGeometry x="76" y="40" width="121" height="75" as="geometry" />
        </mxCell>
      </root>
    </mxGraphModel>
  </diagram>
</mxfile>
